# xmcd
#
# Track frame offsets: 
#        150
#        18225
#        35100
#        55200
#        70725
#        87000
#        102375
#        117000
#        133500
#        158775
#        175125
#        201225
#        217950
#
# Disc length: 3199 seconds
#
# Revision: 1
# Processed by: cddbd v1.5.1PL0 Copyright (c) Steve Scherf et al.
# Submitted via: ExactAudioCopy v0.95a3
#
DISCID=ac0c7d0d
DTITLE=Western Union - Collection 1983 - 1989
DYEAR=1989
DGENRE=Country
TTITLE0=Nur Ein Kuß
TTITLE1=Bi-Ba-Baby
TTITLE2=Gott Ich Hoff' Der Tag Wird Gut
TTITLE3=Wer Glaubst Du, Wer Du Bist
TTITLE4=Nach Süden
TTITLE5=Auf Der Autobahn
TTITLE6=Der Liebe Gott Muß'n Cowboy Sei
TTITLE7=Bärenstark
TTITLE8=Ich Stell' Mir Vor Berlin Ist Nashville
TTITLE9=Unser Lied Im Radio
TTITLE10=Transit Cowboy
TTITLE11=Ich Möcht' So Gerne Mal Nach Nashville
TTITLE12=Wir Gehören Doch Zusammen
EXTD=YEAR: 1989 ID3G: 2
EXTT0=
EXTT1=
EXTT2=
EXTT3=
EXTT4=
EXTT5=
EXTT6=
EXTT7=
EXTT8=
EXTT9=
EXTT10=
EXTT11=
EXTT12=
PLAYORDER=
